<svg xmlns="http://www.w3.org/2000/svg" viewBox="0 0 397 85"><path fill="currentColor" d="M101.5 61.5V17.7h16.7c3.2 0 5.8.5 8 1.5 2 1 3.6 2.3 4.7 4 1 1.7 1.5 3.7 1.5 5.8 0 1.8-.3 3.3-1 4.6a8.6 8.6 0 01-2.7 3c-1.2.9-2.5 1.4-4 1.8v.4a10 10 0 018 5c1 1.6 1.5 3.5 1.5 5.8a11.2 11.2 0 01-6.6 10.4c-2.3 1-5 1.5-8.4 1.5h-17.7zm7.9-6.6h8.5c3 0 5-.6 6.3-1.7 1.3-1.1 1.9-2.5 1.9-4.3a6.6 6.6 0 00-3.7-6c-1.2-.6-2.6-.9-4.2-.9h-8.8v13zm0-18.6h7.9c1.3 0 2.6-.2 3.7-.7 1-.6 2-1.3 2.5-2.2.7-1 1-2 1-3.3 0-1.7-.6-3.1-1.8-4.2-1.2-1.1-3-1.7-5.3-1.7h-8v12.1zm39-18.6v43.8h-7.7V17.7h7.8zM170.9 62c-3.2 0-6-.7-8.4-2a14.4 14.4 0 01-5.5-6c-1.2-2.5-1.9-5.5-1.9-9 0-3.3.7-6.3 2-8.8 1.2-2.6 3-4.6 5.4-6a16 16 0 018.4-2.1c3.2 0 6 .7 8.3 2.1 2.4 1.4 4.2 3.4 5.5 6 1.3 2.5 2 5.5 2 8.9 0 3.4-.7 6.4-2 8.9a14.2 14.2 0 01-5.5 6 16 16 0 01-8.3 2zm0-6.2c1.8 0 3.2-.4 4.4-1.4 1.2-1 2-2.3 2.6-3.9.6-1.6.9-3.4.9-5.4 0-2-.3-3.9-1-5.5-.5-1.6-1.3-3-2.5-4a6.6 6.6 0 00-4.4-1.4c-1.8 0-3.3.5-4.4 1.5-1.2 1-2 2.3-2.7 4-.5 1.5-.8 3.4-.8 5.4 0 2 .3 3.8.8 5.4.6 1.6 1.5 3 2.7 3.9 1.1 1 2.6 1.4 4.4 1.4zm36.6 18.6c-2.8 0-5.2-.4-7.2-1.1-2-.8-3.6-1.8-4.8-3-1.2-1.3-2-2.7-2.5-4.2l7-1.7c.3.7.7 1.3 1.3 2 .6.6 1.4 1 2.4 1.5 1 .4 2.4.6 4 .6A9 9 0 00213 67c1.4-1 2.1-2.8 2.1-5.2v-6.2h-.3c-.4.8-1 1.6-1.8 2.4a9 9 0 01-3 2.2c-1.3.5-2.8.8-4.7.8a12.7 12.7 0 01-11.7-7.1 19.8 19.8 0 01-1.9-9c0-3.6.6-6.6 1.8-9 1.3-2.6 2.9-4.5 5-5.8a12.6 12.6 0 0111.6-1c1.2.7 2.2 1.5 3 2.4.7 1 1.3 1.8 1.7 2.6h.4v-5.5h7.6V62c0 2.8-.7 5.2-2 7a12 12 0 01-5.5 4.1c-2.3 1-5 1.4-8 1.4zm0-19.6c1.7 0 3-.4 4.3-1.2 1.1-.8 2-1.9 2.6-3.4.6-1.5.9-3.3.9-5.4 0-2-.3-3.9-1-5.4a7.8 7.8 0 00-2.5-3.6 6.7 6.7 0 00-4.2-1.3c-1.8 0-3.2.4-4.4 1.3-1.1.9-2 2.1-2.6 3.7a15 15 0 00-.9 5.3c0 2 .3 3.8 1 5.3a7.8 7.8 0 002.6 3.5c1.1.8 2.6 1.2 4.3 1.2zm61.2-22.4h-8a10 10 0 00-3.5-6.1 12.2 12.2 0 00-13.2-.4c-1.9 1.2-3.3 3-4.4 5.2-1 2.3-1.5 5-1.5 8.4 0 3.3.5 6.2 1.5 8.5 1 2.2 2.5 4 4.4 5.1 1.8 1.2 3.9 1.8 6.3 1.8 1.3 0 2.5-.2 3.6-.5a10 10 0 005.5-4.1c.6-1 1-2.2 1.3-3.5h8a17.3 17.3 0 01-11.4 14 21 21 0 01-7.1 1.2 18.7 18.7 0 01-17.5-10.4 26 26 0 01-2.6-12.1c0-4.7.9-8.8 2.6-12.1A18.8 18.8 0 01250.1 17c2.4 0 4.7.3 6.8 1 2 .7 4 1.7 5.6 3 1.6 1.3 3 3 4 4.8 1 2 1.8 4.1 2.1 6.6zm14.7 9.7v19.3h-7.8V17.7h7.6v16.5h.4c.8-1.8 2-3.3 3.6-4.4a11 11 0 016.2-1.6c2.3 0 4.3.5 6 1.4 1.7 1 3 2.4 3.9 4.2 1 1.9 1.4 4.1 1.4 6.8v20.9H297V41.8c0-2.2-.6-4-1.8-5.2a6 6 0 00-4.7-1.9c-1.4 0-2.6.3-3.7 1-1 .5-1.9 1.4-2.5 2.5a8.4 8.4 0 00-1 4zm38.7 20c-2.1 0-4-.4-5.7-1.2-1.6-.7-3-1.8-4-3.3a9.8 9.8 0 01-1.3-5.4c0-1.9.3-3.4 1-4.6a8 8 0 012.8-3c1.2-.7 2.5-1.2 4-1.6 1.5-.4 3-.7 4.6-.8l4.7-.6a7 7 0 002.6-.7c.6-.4.9-1 .9-1.7v-.1c0-1.6-.5-2.9-1.5-3.7-1-1-2.3-1.4-4.1-1.4-1.9 0-3.4.4-4.5 1.3a6.2 6.2 0 00-2.2 2.9l-7.3-1a11.5 11.5 0 017.7-8c1.9-.8 4-1.1 6.3-1.1 1.5 0 3.1.2 4.7.6 1.6.3 3 1 4.3 1.8 1.3.8 2.3 2 3.1 3.4.8 1.5 1.2 3.3 1.2 5.5v22H332V57h-.3a9.4 9.4 0 01-5.2 4.5c-1.2.4-2.7.7-4.4.7zm2-5.7c1.5 0 2.9-.3 4-1 1.2-.6 2-1.4 2.6-2.4.7-1 1-2.2 1-3.4v-3.9l-1.3.6-1.9.4a59.3 59.3 0 01-4 .6c-1 .2-2.1.4-3 .8-1 .4-1.7.9-2.2 1.5-.5.6-.8 1.4-.8 2.4 0 1.5.5 2.5 1.6 3.3 1 .7 2.4 1 4 1zm23.1 5V28.6h7.7v32.9h-7.7zM351 24c-1.2 0-2.3-.4-3.2-1.3a4 4 0 01-1.3-3c0-1.1.4-2.1 1.3-3 1-.7 2-1.1 3.2-1.1 1.2 0 2.3.4 3.2 1.2.8.8 1.3 1.8 1.3 3a4 4 0 01-1.3 3c-1 .8-2 1.2-3.2 1.2zm19.6 18.2v19.3h-7.8V28.6h7.4v5.6h.4c.8-1.8 2-3.3 3.6-4.4 1.7-1 3.8-1.6 6.2-1.6 2.3 0 4.2.5 6 1.5 1.6 1 3 2.3 3.9 4.2 1 1.8 1.4 4 1.4 6.7v20.9h-7.8V41.8c0-2.2-.6-4-1.7-5.2a6 6 0 00-4.7-1.9c-1.3 0-2.5.3-3.6 1-1 .5-1.9 1.4-2.5 2.5a8.6 8.6 0 00-.8 4z"/><path fill="#6944FF" fill-rule="evenodd" d="M1.7 43.9c-1-1-1-2.5 0-3.5l23.8-23.8c1-1 2.5-1 3.5 0l5.6 5.7-18 18c-1 1-1 2.5 0 3.4L34.8 62 29 67.7c-1 1-2.5 1-3.5 0L1.7 43.9zm40.5 10.6L34.8 62l5.6 5.6c1 1 2.5 1 3.5 0l5.6-5.6 5.7 5.6c1 1 2.5 1 3.4 0l23.8-23.8c1-1 1-2.5 0-3.4L58.6 16.5c-1-1-2.5-1-3.4 0L49.5 22 44 16.5c-1-1-2.5-1-3.5 0l-5.8 5.8 7.4 7.3-10.6 10.7c-1 1-1 2.5 0 3.4l10.8 10.8zM42 29.6l10.8 10.8c1 1 1 2.5 0 3.5L42.2 54.5l7.3 7.4 18.2-18.2c1-1 1-2.5 0-3.4L49.5 22 42 29.6z"/></svg>