<svg viewBox="0 0 397 85" xmlns="http://www.w3.org/2000/svg"><path d="M101.461 61.494V17.669h16.777c3.167 0 5.799.499 7.896 1.497 2.112.985 3.688 2.333 4.73 4.045 1.055 1.712 1.583 3.652 1.583 5.82 0 1.784-.342 3.31-1.027 4.58a8.646 8.646 0 01-2.76 3.06 11.688 11.688 0 01-3.874 1.69v.428c1.555.086 3.046.564 4.473 1.434 1.441.856 2.618 2.069 3.531 3.638.913 1.57 1.369 3.467 1.369 5.692 0 2.269-.549 4.309-1.648 6.12-1.098 1.798-2.753 3.217-4.964 4.259-2.211 1.041-4.993 1.562-8.346 1.562h-17.74zm7.939-6.634h8.539c2.881 0 4.957-.55 6.227-1.648 1.284-1.112 1.926-2.539 1.926-4.28 0-1.298-.321-2.467-.963-3.509-.642-1.056-1.555-1.883-2.739-2.482-1.184-.614-2.597-.92-4.237-.92H109.4v12.84zm0-18.553h7.854c1.369 0 2.603-.25 3.702-.749 1.098-.513 1.961-1.234 2.589-2.161.642-.942.963-2.054.963-3.338 0-1.698-.599-3.096-1.797-4.195-1.185-1.098-2.946-1.647-5.286-1.647H109.4v12.09zm39.07-18.638v43.825h-7.747V17.669h7.747zm22.303 44.467c-3.21 0-5.992-.706-8.346-2.119-2.354-1.412-4.18-3.388-5.478-5.927-1.284-2.54-1.926-5.507-1.926-8.902 0-3.396.642-6.37 1.926-8.924 1.298-2.553 3.124-4.536 5.478-5.949 2.354-1.412 5.136-2.118 8.346-2.118s5.992.706 8.346 2.118c2.353 1.413 4.172 3.396 5.456 5.95 1.299 2.553 1.948 5.527 1.948 8.923 0 3.395-.649 6.362-1.948 8.902-1.284 2.54-3.103 4.515-5.456 5.927-2.354 1.413-5.136 2.119-8.346 2.119zm.043-6.206c1.74 0 3.195-.478 4.365-1.434 1.17-.97 2.04-2.268 2.611-3.894.585-1.627.877-3.438.877-5.436 0-2.011-.292-3.83-.877-5.456-.571-1.641-1.441-2.946-2.611-3.916-1.17-.97-2.625-1.455-4.365-1.455-1.784 0-3.267.485-4.451 1.455-1.17.97-2.047 2.275-2.632 3.916-.571 1.626-.856 3.445-.856 5.456 0 1.998.285 3.81.856 5.436.585 1.626 1.462 2.924 2.632 3.894 1.184.956 2.667 1.434 4.451 1.434zm36.576 18.574c-2.782 0-5.171-.378-7.169-1.134-1.997-.741-3.602-1.74-4.814-2.996-1.213-1.255-2.055-2.646-2.525-4.172l6.976-1.69c.313.641.77 1.276 1.369 1.904.599.642 1.405 1.17 2.418 1.583 1.027.428 2.318.642 3.873.642 2.197 0 4.016-.535 5.457-1.605 1.441-1.055 2.162-2.796 2.162-5.221v-6.227h-.386c-.399.799-.984 1.619-1.754 2.46-.756.842-1.762 1.548-3.018 2.12-1.241.57-2.803.855-4.686.855-2.525 0-4.815-.592-6.869-1.776-2.04-1.198-3.667-2.982-4.879-5.35-1.198-2.382-1.798-5.364-1.798-8.945 0-3.609.6-6.655 1.798-9.137 1.212-2.497 2.846-4.387 4.9-5.67 2.055-1.299 4.344-1.948 6.869-1.948 1.926 0 3.51.328 4.751.984 1.255.642 2.254 1.42 2.996 2.333.742.899 1.305 1.747 1.69 2.546h.428v-5.435h7.64v33.404c0 2.81-.671 5.136-2.012 6.976-1.341 1.84-3.174 3.217-5.499 4.13-2.326.913-4.965 1.37-7.918 1.37zm.064-19.558c1.641 0 3.039-.4 4.194-1.199 1.156-.798 2.033-1.947 2.633-3.445.599-1.498.898-3.295.898-5.392 0-2.069-.299-3.88-.898-5.436-.585-1.555-1.456-2.76-2.611-3.616-1.141-.87-2.547-1.305-4.216-1.305-1.726 0-3.167.449-4.322 1.348-1.156.898-2.026 2.132-2.611 3.702-.585 1.555-.877 3.324-.877 5.307 0 2.011.292 3.773.877 5.285.599 1.498 1.477 2.668 2.632 3.51 1.17.827 2.604 1.24 4.301 1.24zm61.159-22.49h-8.003c-.229-1.313-.65-2.476-1.263-3.489a9.375 9.375 0 00-2.29-2.61 9.538 9.538 0 00-3.124-1.605c-1.155-.371-2.404-.557-3.745-.557-2.382 0-4.494.6-6.334 1.798-1.84 1.184-3.281 2.924-4.323 5.221-1.041 2.283-1.562 5.072-1.562 8.367 0 3.353.521 6.177 1.562 8.474 1.056 2.283 2.497 4.009 4.323 5.179 1.84 1.155 3.945 1.733 6.313 1.733 1.312 0 2.539-.171 3.68-.513a10.075 10.075 0 003.103-1.563 9.173 9.173 0 002.333-2.525c.642-.998 1.084-2.14 1.327-3.423l8.003.042a17.255 17.255 0 01-1.947 5.864 17.297 17.297 0 01-3.874 4.836c-1.597 1.384-3.466 2.468-5.606 3.252-2.14.77-4.515 1.156-7.126 1.156-3.852 0-7.29-.892-10.315-2.675-3.024-1.783-5.406-4.358-7.147-7.725-1.74-3.367-2.61-7.404-2.61-12.112 0-4.722.877-8.76 2.632-12.112 1.754-3.366 4.144-5.942 7.168-7.725 3.025-1.783 6.449-2.675 10.272-2.675 2.439 0 4.708.343 6.805 1.028 2.097.684 3.966 1.69 5.606 3.017 1.641 1.312 2.989 2.924 4.045 4.836 1.07 1.897 1.769 4.066 2.097 6.505zm14.674 9.779v19.259h-7.746V17.669h7.575V34.21h.385c.771-1.855 1.962-3.317 3.574-4.387 1.626-1.084 3.695-1.626 6.206-1.626 2.282 0 4.272.478 5.97 1.434 1.698.956 3.01 2.354 3.937 4.194.942 1.84 1.413 4.087 1.413 6.74v20.929h-7.747v-19.73c0-2.211-.57-3.93-1.712-5.157-1.127-1.241-2.71-1.862-4.75-1.862-1.37 0-2.597.3-3.681.899-1.07.585-1.912 1.434-2.525 2.546-.599 1.113-.899 2.461-.899 4.045zm38.668 19.922c-2.082 0-3.958-.37-5.628-1.112-1.654-.757-2.967-1.87-3.937-3.339-.956-1.47-1.434-3.28-1.434-5.435 0-1.855.343-3.388 1.027-4.6a7.954 7.954 0 012.804-2.911c1.184-.728 2.518-1.277 4.001-1.648a32.544 32.544 0 014.644-.834c1.926-.2 3.488-.378 4.686-.535 1.199-.172 2.069-.428 2.611-.77.556-.358.835-.907.835-1.649v-.128c0-1.612-.478-2.86-1.434-3.745-.956-.884-2.333-1.327-4.13-1.327-1.898 0-3.403.414-4.515 1.242-1.099.827-1.841 1.804-2.226 2.931l-7.233-1.027c.571-1.997 1.512-3.666 2.825-5.007 1.312-1.355 2.917-2.368 4.815-3.039 1.897-.685 3.994-1.027 6.291-1.027 1.584 0 3.16.185 4.729.556 1.569.371 3.003.985 4.301 1.84 1.299.842 2.34 1.99 3.125 3.446.799 1.455 1.198 3.274 1.198 5.457v21.998h-7.447v-4.515h-.257c-.47.913-1.134 1.769-1.99 2.568-.841.784-1.904 1.42-3.188 1.904-1.27.47-2.761.706-4.473.706zm2.012-5.692c1.555 0 2.903-.307 4.044-.92 1.142-.628 2.019-1.455 2.632-2.482a6.321 6.321 0 00.942-3.36V45.83c-.243.2-.656.385-1.241.556-.571.171-1.213.321-1.926.45-.713.128-1.42.242-2.119.342-.699.1-1.305.185-1.819.257-1.155.157-2.189.413-3.102.77-.913.357-1.634.856-2.162 1.498-.528.628-.791 1.44-.791 2.44 0 1.426.52 2.503 1.562 3.23 1.041.728 2.368 1.092 3.98 1.092zm23.132 5.029v-32.87h7.747v32.87h-7.747zm3.895-37.534c-1.227 0-2.283-.407-3.167-1.22-.885-.827-1.327-1.819-1.327-2.974 0-1.17.442-2.162 1.327-2.975.884-.827 1.94-1.24 3.167-1.24 1.241 0 2.297.413 3.167 1.24.885.813 1.327 1.805 1.327 2.975 0 1.155-.442 2.147-1.327 2.974-.87.813-1.926 1.22-3.167 1.22zm19.564 18.275v19.259h-7.746v-32.87h7.404v5.586h.385a9.391 9.391 0 013.616-4.387c1.669-1.084 3.731-1.626 6.185-1.626 2.268 0 4.244.485 5.927 1.455 1.698.97 3.01 2.375 3.938 4.216.941 1.84 1.405 4.073 1.391 6.698v20.928h-7.747v-19.73c0-2.197-.571-3.916-1.712-5.157-1.127-1.241-2.689-1.862-4.686-1.862-1.356 0-2.561.3-3.617.899-1.041.585-1.861 1.434-2.461 2.546-.584 1.113-.877 2.461-.877 4.045z" fill="#fff"/><path fill-rule="evenodd" d="M1.736 43.889a2.455 2.455 0 010-3.472L25.523 16.63a2.455 2.455 0 013.471 0l5.644 5.644-17.993 17.992a2.455 2.455 0 000 3.472L34.79 61.882l-5.795 5.794a2.455 2.455 0 01-3.47 0L1.735 43.89zm40.417 10.629l-7.364 7.364 5.644 5.643a2.455 2.455 0 003.471 0l5.628-5.628 5.628 5.628a2.455 2.455 0 003.472 0l23.787-23.787a2.455 2.455 0 000-3.471L58.632 16.479a2.455 2.455 0 00-3.472 0l-5.628 5.628-5.628-5.628a2.455 2.455 0 00-3.471 0l-5.795 5.795 7.364 7.364-10.629 10.628a2.455 2.455 0 000 3.472l10.78 10.78zm-.151-24.88l10.78 10.78a2.455 2.455 0 010 3.47l-10.63 10.63 7.38 7.379 18.16-18.16a2.455 2.455 0 000-3.47l-18.16-18.16-7.53 7.53z" fill="#6944FF"/></svg>