<svg xmlns="http://www.w3.org/2000/svg" xmlns:xlink="http://www.w3.org/1999/xlink" width="0" height="0" style="position:absolute">
	
		<symbol id="icon-arrow-down" viewBox="0 0 14 15">
			<path d="M1.43 5.57l1.14-1.14L7 8.87l4.43-4.44 1.14 1.14L7 11.13 1.43 5.57z"></path>
		</symbol>
	
		<symbol id="icon-arrow-first-page" viewBox="0 0 12 10">
			<path fill-rule="evenodd" clip-rule="evenodd" d="M5.293.293l1.414 1.414L3.414 5l3.293 3.293-1.414 1.414L.586 5 5.293.293z"></path><path fill-rule="evenodd" clip-rule="evenodd" d="M10.293.293l1.414 1.414L8.414 5l3.293 3.293-1.414 1.414L5.586 5 10.293.293z"></path>
		</symbol>
	
		<symbol id="icon-arrow-last-page" viewBox="0 0 12 10">
			<path fill-rule="evenodd" clip-rule="evenodd" d="M6.828.293L5.414 1.707 8.707 5 5.414 8.293l1.414 1.414L11.535 5 6.828.293z"></path><path fill-rule="evenodd" clip-rule="evenodd" d="M1.828.293L.414 1.707 3.707 5 .414 8.293l1.414 1.414L6.535 5 1.828.293z"></path>
		</symbol>
	
		<symbol id="icon-arrow-left" viewBox="0 0 39 22">
			<path d="M.74 10.5h38v1h-38v-1z"></path><path d="M11.4.63l.68.74L1.48 11l10.6 9.63-.67.74L0 11 11.4.63z"></path>
		</symbol>
	
		<symbol id="icon-arrow-next-page" viewBox="0 0 7 10">
			<path fill-rule="evenodd" clip-rule="evenodd" d="M1.414.293L0 1.707 3.293 5 0 8.293l1.414 1.414L6.121 5 1.414.293z"></path>
		</symbol>
	
		<symbol id="icon-arrow-prev-page" viewBox="0 0 7 10">
			<path fill-rule="evenodd" clip-rule="evenodd" d="M5.414.293l1.414 1.414L3.535 5l3.293 3.293-1.414 1.414L.707 5 5.414.293z"></path>
		</symbol>
	
		<symbol id="icon-arrow-right" viewBox="0 0 39 22">
			<g clip-path="url(#a)"><path d="M38.26 11.5h-38v-1h38v1z"></path><path d="M27.6 21.37l-.68-.74L37.52 11l-10.6-9.63.67-.74L39 11 27.6 21.37z"></path></g><defs><clipPath id="a"><path transform="rotate(-180 19.5 11)" d="M0 0h39v22H0z"></path></clipPath></defs>
		</symbol>
	
		<symbol id="icon-arrow-up" viewBox="0 0 14 15">
			<path d="M12.57 9.43l-1.14 1.14L7 6.13l-4.43 4.44-1.14-1.14L7 3.87l5.57 5.56z"></path>
		</symbol>
	
		<symbol id="icon-circle-checked" viewBox="0 0 25 24">
			<path d="M12.5 23a11 11 0 1 1 0-22 11 11 0 0 1 0 22zm0-2a9 9 0 1 0 0-18 9 9 0 0 0 0 18zm3.3-12.7l-5.3 5.3-2.3-2.3-1.4 1.4 3.7 3.7 6.7-6.7-1.4-1.4z"></path>
		</symbol>
	
		<symbol id="icon-close" viewBox="0 0 16 16">
			<path fill-rule="evenodd" clip-rule="evenodd" d="M8 9.414l-4.293 4.293-1.414-1.414L6.586 8 2.293 3.707l1.414-1.414L8 6.586l4.293-4.293 1.414 1.414L9.414 8l4.293 4.293-1.414 1.414L8 9.414z"></path>
		</symbol>
	
		<symbol id="icon-facebook" viewBox="0 0 24 24">
			<path d="M24 12.07C24 5.4 18.63 0 12 0S0 5.4 0 12.07C0 18.1 4.39 23.1 10.13 24v-8.44H7.08v-3.49h3.04V9.41c0-3.02 1.8-4.7 4.54-4.7 1.31 0 2.68.24 2.68.24v2.97h-1.51c-1.5 0-1.96.93-1.96 1.89v2.26h3.33l-.53 3.5h-2.8V24C19.62 23.1 24 18.1 24 12.07z"></path>
		</symbol>
	
		<symbol id="icon-instagram" viewBox="0 0 24 24">
			<path d="M17.3 0H6.7C3 0 0 3 0 6.8v10.5C0 21 3 24 6.8 24h10.4c3.8 0 6.8-3 6.8-6.8V6.8C24 3 21 0 17.2 0zM12 7.5c2.5 0 4.5 2 4.5 4.5s-2 4.5-4.5 4.5-4.5-2-4.5-4.5 2-4.5 4.5-4.5zm4.5-2.3c0-.8.7-1.5 1.5-1.5s1.5.7 1.5 1.5c0 .9-.7 1.5-1.5 1.5s-1.5-.6-1.5-1.5z"></path>
		</symbol>
	
		<symbol id="icon-like" viewBox="0 0 16 16">
			<path d="M9.33 6V3.33a2 2 0 0 0-2-2l-2.66 6v7.34h7.52a1.33 1.33 0 0 0 1.33-1.14l.92-6A1.33 1.33 0 0 0 13.11 6H9.33zm-4.66 8.67h-2a1.33 1.33 0 0 1-1.34-1.34V8.67a1.33 1.33 0 0 1 1.34-1.34h2"></path><path d="M4.67 14.67h-2a1.33 1.33 0 0 1-1.34-1.34V8.67a1.33 1.33 0 0 1 1.34-1.34h2M9.33 6V3.33a2 2 0 0 0-2-2l-2.66 6v7.34h7.52a1.33 1.33 0 0 0 1.33-1.14l.92-6A1.33 1.33 0 0 0 13.11 6H9.33z"></path>
		</symbol>
	
		<symbol id="icon-load" viewBox="0 0 20 17">
			<path d="M19.427 8.288c-.318 0-.573.233-.573.525v4.78c0 1.301-1.154 2.356-2.568 2.356H3.714c-1.418 0-2.568-1.059-2.568-2.355V8.736c0-.292-.255-.526-.573-.526-.318 0-.573.234-.573.526v4.858C0 15.474 1.668 17 3.714 17h12.572C18.336 17 20 15.47 20 13.594v-4.78c0-.289-.255-.526-.573-.526z"></path><path d="M9.597 12.827a.604.604 0 0 0 .806 0l3.642-3.34a.494.494 0 0 0 0-.744.608.608 0 0 0-.81 0l-2.662 2.445V.526C10.573.234 10.318 0 10 0c-.318 0-.573.234-.573.526v10.662L6.761 8.743a.608.608 0 0 0-.81 0 .494.494 0 0 0 0 .744l3.646 3.34z"></path>
		</symbol>
	
		<symbol id="icon-logo" viewBox="0 0 397 85">
			<path d="M101.461 61.494V17.669h16.777c3.167 0 5.799.499 7.896 1.497 2.112.985 3.688 2.333 4.73 4.045 1.055 1.712 1.583 3.652 1.583 5.82 0 1.784-.342 3.31-1.027 4.58a8.646 8.646 0 0 1-2.76 3.06 11.688 11.688 0 0 1-3.874 1.69v.428c1.555.086 3.046.564 4.473 1.434 1.441.856 2.618 2.069 3.531 3.638.913 1.57 1.369 3.467 1.369 5.692 0 2.269-.549 4.309-1.648 6.12-1.098 1.798-2.753 3.217-4.964 4.259-2.211 1.041-4.993 1.562-8.346 1.562h-17.74zm7.939-6.634h8.539c2.881 0 4.957-.55 6.227-1.648 1.284-1.112 1.926-2.539 1.926-4.28 0-1.298-.321-2.467-.963-3.509-.642-1.056-1.555-1.883-2.739-2.482-1.184-.614-2.597-.92-4.237-.92H109.4v12.84zm0-18.553h7.854c1.369 0 2.603-.25 3.702-.749 1.098-.513 1.961-1.234 2.589-2.161.642-.942.963-2.054.963-3.338 0-1.698-.599-3.096-1.797-4.195-1.185-1.098-2.946-1.647-5.286-1.647H109.4v12.09zm39.07-18.638v43.825h-7.747V17.669h7.747zm22.303 44.467c-3.21 0-5.992-.706-8.346-2.119-2.354-1.412-4.18-3.388-5.478-5.927-1.284-2.54-1.926-5.507-1.926-8.902 0-3.396.642-6.37 1.926-8.924 1.298-2.553 3.124-4.536 5.478-5.949 2.354-1.412 5.136-2.118 8.346-2.118s5.992.706 8.346 2.118c2.353 1.413 4.172 3.396 5.456 5.95 1.299 2.553 1.948 5.527 1.948 8.923 0 3.395-.649 6.362-1.948 8.902-1.284 2.54-3.103 4.515-5.456 5.927-2.354 1.413-5.136 2.119-8.346 2.119zm.043-6.206c1.74 0 3.195-.478 4.365-1.434 1.17-.97 2.04-2.268 2.611-3.894.585-1.627.877-3.438.877-5.436 0-2.011-.292-3.83-.877-5.456-.571-1.641-1.441-2.946-2.611-3.916-1.17-.97-2.625-1.455-4.365-1.455-1.784 0-3.267.485-4.451 1.455-1.17.97-2.047 2.275-2.632 3.916-.571 1.626-.856 3.445-.856 5.456 0 1.998.285 3.81.856 5.436.585 1.626 1.462 2.924 2.632 3.894 1.184.956 2.667 1.434 4.451 1.434zm36.576 18.574c-2.782 0-5.171-.378-7.169-1.134-1.997-.741-3.602-1.74-4.814-2.996-1.213-1.255-2.055-2.646-2.525-4.172l6.976-1.69c.313.641.77 1.276 1.369 1.904.599.642 1.405 1.17 2.418 1.583 1.027.428 2.318.642 3.873.642 2.197 0 4.016-.535 5.457-1.605 1.441-1.055 2.162-2.796 2.162-5.221v-6.227h-.386c-.399.799-.984 1.619-1.754 2.46-.756.842-1.762 1.548-3.018 2.12-1.241.57-2.803.855-4.686.855-2.525 0-4.815-.592-6.869-1.776-2.04-1.198-3.667-2.982-4.879-5.35-1.198-2.382-1.798-5.364-1.798-8.945 0-3.609.6-6.655 1.798-9.137 1.212-2.497 2.846-4.387 4.9-5.67 2.055-1.299 4.344-1.948 6.869-1.948 1.926 0 3.51.328 4.751.984 1.255.642 2.254 1.42 2.996 2.333.742.899 1.305 1.747 1.69 2.546h.428v-5.435h7.64v33.404c0 2.81-.671 5.136-2.012 6.976-1.341 1.84-3.174 3.217-5.499 4.13-2.326.913-4.965 1.37-7.918 1.37zm.064-19.558c1.641 0 3.039-.4 4.194-1.199 1.156-.798 2.033-1.947 2.633-3.445.599-1.498.898-3.295.898-5.392 0-2.069-.299-3.88-.898-5.436-.585-1.555-1.456-2.76-2.611-3.616-1.141-.87-2.547-1.305-4.216-1.305-1.726 0-3.167.449-4.322 1.348-1.156.898-2.026 2.132-2.611 3.702-.585 1.555-.877 3.324-.877 5.307 0 2.011.292 3.773.877 5.285.599 1.498 1.477 2.668 2.632 3.51 1.17.827 2.604 1.24 4.301 1.24zm61.159-22.49h-8.003c-.229-1.313-.65-2.476-1.263-3.489a9.375 9.375 0 0 0-2.29-2.61 9.538 9.538 0 0 0-3.124-1.605c-1.155-.371-2.404-.557-3.745-.557-2.382 0-4.494.6-6.334 1.798-1.84 1.184-3.281 2.924-4.323 5.221-1.041 2.283-1.562 5.072-1.562 8.367 0 3.353.521 6.177 1.562 8.474 1.056 2.283 2.497 4.009 4.323 5.179 1.84 1.155 3.945 1.733 6.313 1.733 1.312 0 2.539-.171 3.68-.513a10.075 10.075 0 0 0 3.103-1.563 9.173 9.173 0 0 0 2.333-2.525c.642-.998 1.084-2.14 1.327-3.423l8.003.042a17.255 17.255 0 0 1-1.947 5.864 17.297 17.297 0 0 1-3.874 4.836c-1.597 1.384-3.466 2.468-5.606 3.252-2.14.77-4.515 1.156-7.126 1.156-3.852 0-7.29-.892-10.315-2.675-3.024-1.783-5.406-4.358-7.147-7.725-1.74-3.367-2.61-7.404-2.61-12.112 0-4.722.877-8.76 2.632-12.112 1.754-3.366 4.144-5.942 7.168-7.725 3.025-1.783 6.449-2.675 10.272-2.675 2.439 0 4.708.343 6.805 1.028 2.097.684 3.966 1.69 5.606 3.017 1.641 1.312 2.989 2.924 4.045 4.836 1.07 1.897 1.769 4.066 2.097 6.505zm14.674 9.779v19.259h-7.746V17.669h7.575V34.21h.385c.771-1.855 1.962-3.317 3.574-4.387 1.626-1.084 3.695-1.626 6.206-1.626 2.282 0 4.272.478 5.97 1.434 1.698.956 3.01 2.354 3.937 4.194.942 1.84 1.413 4.087 1.413 6.74v20.929h-7.747v-19.73c0-2.211-.57-3.93-1.712-5.157-1.127-1.241-2.71-1.862-4.75-1.862-1.37 0-2.597.3-3.681.899-1.07.585-1.912 1.434-2.525 2.546-.599 1.113-.899 2.461-.899 4.045zm38.668 19.922c-2.082 0-3.958-.37-5.628-1.112-1.654-.757-2.967-1.87-3.937-3.339-.956-1.47-1.434-3.28-1.434-5.435 0-1.855.343-3.388 1.027-4.6a7.954 7.954 0 0 1 2.804-2.911c1.184-.728 2.518-1.277 4.001-1.648a32.544 32.544 0 0 1 4.644-.834c1.926-.2 3.488-.378 4.686-.535 1.199-.172 2.069-.428 2.611-.77.556-.358.835-.907.835-1.649v-.128c0-1.612-.478-2.86-1.434-3.745-.956-.884-2.333-1.327-4.13-1.327-1.898 0-3.403.414-4.515 1.242-1.099.827-1.841 1.804-2.226 2.931l-7.233-1.027c.571-1.997 1.512-3.666 2.825-5.007 1.312-1.355 2.917-2.368 4.815-3.039 1.897-.685 3.994-1.027 6.291-1.027 1.584 0 3.16.185 4.729.556 1.569.371 3.003.985 4.301 1.84 1.299.842 2.34 1.99 3.125 3.446.799 1.455 1.198 3.274 1.198 5.457v21.998h-7.447v-4.515h-.257c-.47.913-1.134 1.769-1.99 2.568-.841.784-1.904 1.42-3.188 1.904-1.27.47-2.761.706-4.473.706zm2.012-5.692c1.555 0 2.903-.307 4.044-.92 1.142-.628 2.019-1.455 2.632-2.482a6.321 6.321 0 0 0 .942-3.36V45.83c-.243.2-.656.385-1.241.556-.571.171-1.213.321-1.926.45-.713.128-1.42.242-2.119.342-.699.1-1.305.185-1.819.257-1.155.157-2.189.413-3.102.77-.913.357-1.634.856-2.162 1.498-.528.628-.791 1.44-.791 2.44 0 1.426.52 2.503 1.562 3.23 1.041.728 2.368 1.092 3.98 1.092zm23.132 5.029v-32.87h7.747v32.87h-7.747zm3.895-37.534c-1.227 0-2.283-.407-3.167-1.22-.885-.827-1.327-1.819-1.327-2.974 0-1.17.442-2.162 1.327-2.975.884-.827 1.94-1.24 3.167-1.24 1.241 0 2.297.413 3.167 1.24.885.813 1.327 1.805 1.327 2.975 0 1.155-.442 2.147-1.327 2.974-.87.813-1.926 1.22-3.167 1.22zm19.564 18.275v19.259h-7.746v-32.87h7.404v5.586h.385a9.391 9.391 0 0 1 3.616-4.387c1.669-1.084 3.731-1.626 6.185-1.626 2.268 0 4.244.485 5.927 1.455 1.698.97 3.01 2.375 3.938 4.216.941 1.84 1.405 4.073 1.391 6.698v20.928h-7.747v-19.73c0-2.197-.571-3.916-1.712-5.157-1.127-1.241-2.689-1.862-4.686-1.862-1.356 0-2.561.3-3.617.899-1.041.585-1.861 1.434-2.461 2.546-.584 1.113-.877 2.461-.877 4.045z"></path><path fill-rule="evenodd" d="M1.736 43.889a2.455 2.455 0 0 1 0-3.472L25.523 16.63a2.455 2.455 0 0 1 3.471 0l5.644 5.644-17.993 17.992a2.455 2.455 0 0 0 0 3.472L34.79 61.882l-5.795 5.794a2.455 2.455 0 0 1-3.47 0L1.735 43.89zm40.417 10.629l-7.364 7.364 5.644 5.643a2.455 2.455 0 0 0 3.471 0l5.628-5.628 5.628 5.628a2.455 2.455 0 0 0 3.472 0l23.787-23.787a2.455 2.455 0 0 0 0-3.471L58.632 16.479a2.455 2.455 0 0 0-3.472 0l-5.628 5.628-5.628-5.628a2.455 2.455 0 0 0-3.471 0l-5.795 5.795 7.364 7.364-10.629 10.628a2.455 2.455 0 0 0 0 3.472l10.78 10.78zm-.151-24.88l10.78 10.78a2.455 2.455 0 0 1 0 3.47l-10.63 10.63 7.38 7.379 18.16-18.16a2.455 2.455 0 0 0 0-3.47l-18.16-18.16-7.53 7.53z"></path>
		</symbol>
	
		<symbol id="icon-logo-small" viewBox="0 0 16 16">
			<path fill-rule="evenodd" d="M.14 8.43a.47.47 0 0 1 0-.67l4.63-4.6a.48.48 0 0 1 .68 0l1.1 1.1-3.5 3.47a.47.47 0 0 0 0 .67l3.53 3.5-1.13 1.13a.48.48 0 0 1-.68 0L.14 8.43zm7.87 2.06L6.58 11.9l1.1 1.1c.19.18.49.18.68 0l1.1-1.09L10.54 13c.19.18.49.18.68 0l4.63-4.6a.47.47 0 0 0 0-.67l-4.63-4.6a.48.48 0 0 0-.68 0l-1.1 1.1-1.1-1.1a.48.48 0 0 0-.67 0L6.55 4.27 8 5.68 5.9 7.73a.47.47 0 0 0 0 .67L8 10.49zM8 5.68l2.1 2.08c.18.19.18.49 0 .67L8 10.5l1.44 1.42L13 8.41a.47.47 0 0 0 0-.68l-3.54-3.5L8 5.68z"></path>
		</symbol>
	
		<symbol id="icon-marker" viewBox="0 0 14 14">
			<path fill-rule="evenodd" d="M7 13.5c3-2 5-5.2 5-8a5 5 0 0 0-10 0c0 2.8 2 6 5 8zm0-6a2 2 0 1 0 0-4 2 2 0 0 0 0 4z"></path>
		</symbol>
	
		<symbol id="icon-phone" viewBox="0 0 14 14">
			<path d="M6.4 3.65c.35.38.24.81-.06 1.22a3.18 3.18 0 0 1-.42.46l-.45.45c-.06.05.34.85 1.12 1.63.77.77 1.57 1.17 1.63 1.12l.45-.45c.24-.25.37-.37.55-.48.37-.25.78-.31 1.12 0 1.12.8 1.75 1.28 2.06 1.6.6.63.53 1.6 0 2.15-.18.19-.4.42-.68.68-1.63 1.64-5.1.64-7.74-2.01C1.33 7.37.33 3.9 1.97 2.27l.67-.67c.54-.53 1.55-.6 2.16 0 .32.32.84.98 1.6 2.05z"></path>
		</symbol>
	
		<symbol id="icon-play" viewBox="0 0 24 24">
			<path d="M18.62 10.66L6.92 3.3A1.9 1.9 0 0 0 4 4.9v14.72a1.9 1.9 0 0 0 2.93 1.62l11.69-7.36a1.9 1.9 0 0 0 0-3.23z"></path>
		</symbol>
	
		<symbol id="icon-sep" viewBox="0 0 6 10">
			<path d="M5.9.7l-5.2 9-.7-.4 5.2-9 .7.4z"></path>
		</symbol>
	
		<symbol id="icon-sticker" viewBox="0 0 42 42">
			<path d="M6.8 14.2a14.2 14.2 0 1 1 24.8 9.4L36 38.9l-6.5-2.6-4.2 5.7-4-13.7a14.1 14.1 0 0 1-.7 0L16.7 42l-4.2-5.7L6 38.9l4.4-15.3a14.1 14.1 0 0 1-3.6-9.4zm5.3 11L9 35.5l4.1-1.7 2.7 3.7 2.7-9.4c-2.5-.4-4.7-1.4-6.5-3zm11.3 3l2.7 9.3 2.6-3.7 4.2 1.7-3-10.3c-1.8 1.5-4 2.5-6.5 3zM21 2a12.1 12.1 0 1 0 0 24.3A12.1 12.1 0 0 0 21 2zm7.3 7.7l-9 11.3-5-5 1.3-1.4 3.6 3.4 7.5-9.5 1.6 1.2z"></path>
		</symbol>
	
		<symbol id="icon-telegram" viewBox="0 0 24 24">
			<path d="M24 12a12 12 0 1 1-24 0 12 12 0 0 1 24 0zM12.43 8.86c-1.17.48-3.5 1.49-7 3.01-.57.23-.86.45-.9.67-.04.36.42.5 1.04.7l.27.08c.6.2 1.43.44 1.86.45.39 0 .82-.16 1.3-.48 3.27-2.21 4.96-3.33 5.06-3.35.08-.02.18-.04.25.02.07.07.07.18.06.22-.05.19-1.84 1.86-2.77 2.72l-.54.5-.28.28c-.57.55-1 .96.02 1.64.5.32.89.59 1.28.85.42.3.85.58 1.4.95.14.09.28.18.4.28.5.35.95.67 1.5.62.32-.03.65-.33.82-1.23.4-2.13 1.18-6.73 1.36-8.63.02-.17 0-.38-.02-.47a.5.5 0 0 0-.17-.33.79.79 0 0 0-.46-.14c-.46.01-1.15.25-4.48 1.64z"></path>
		</symbol>
	
		<symbol id="icon-viber" viewBox="0 0 24 24">
			<path d="M21.22 2.34c-.6-.55-3-2.3-8.37-2.32 0 0-6.34-.39-9.45 2.45C1.68 4.19 1.08 6.7 1.01 9.82.95 12.93.87 18.77 6.5 20.36v2.42s0 .98.6 1.17c.79.25 1.24-.5 2-1.3l1.39-1.58c2.4.22 4.8.05 7.14-.52.78-.26 5.18-.82 5.9-6.67.77-6.02-.33-9.82-2.3-11.54zm.66 11.12c-.61 4.87-4.18 5.17-4.83 5.39-2.01.5-4.1.67-6.16.53 0 0-2.44 2.9-3.2 3.7a.41.41 0 0 1-.35.15c-.13-.04-.17-.2-.17-.42V18.8c-4.76-1.32-4.48-6.3-4.43-8.9.06-2.6.55-4.73 2-6.17 2.6-2.36 8-2.01 8-2.01 4.53 0 6.71 1.39 7.21 1.85 1.7 1.43 2.54 4.86 1.93 9.9z"></path><path d="M14.06 9.98a.3.3 0 0 1-.31-.29 1.45 1.45 0 0 0-1.53-1.58.3.3 0 1 1 .04-.61 2.04 2.04 0 0 1 2.08 2.3.3.3 0 0 1-.27.2l-.01-.02z"></path><path d="M15.62 10.5a.3.3 0 0 1-.3-.3 3.5 3.5 0 0 0-.9-2.57 3.78 3.78 0 0 0-2.78-1.17.3.3 0 0 1 .17-.59 4.4 4.4 0 0 1 3.05 1.35 4.12 4.12 0 0 1 1.04 3.08.3.3 0 0 1-.28.2z"></path><path d="M17.2 11.13a.3.3 0 0 1-.3-.3 5.81 5.81 0 0 0-1.63-4.36 5.6 5.6 0 0 0-4.03-1.6.3.3 0 0 1 0-.6 6.22 6.22 0 0 1 4.45 1.76 6.45 6.45 0 0 1 1.82 4.77.3.3 0 0 1-.3.3v.03zm-4.9 2.62a.83.83 0 0 0 .66-.25l.45-.57a.97.97 0 0 1 1.24-.16 12.68 12.68 0 0 1 2.15 1.56.85.85 0 0 1 .18 1.12c-.24.43-.56.81-.93 1.14-.26.25-.6.4-.95.46h-.14c-.13 0-.27-.02-.4-.06-.9-.31-1.77-.71-2.6-1.2a15.2 15.2 0 0 1-3.16-2.33h-.03a15.84 15.84 0 0 1-2.32-3.17c-.5-.82-.9-1.69-1.2-2.6a1.32 1.32 0 0 1-.07-.4v-.14c.05-.35.21-.68.46-.94.28-.43.62-.8 1.02-1.11a.86.86 0 0 1 1.13.18L8.6 6.3c.25.3.56.83.73 1.12a1 1 0 0 1-.17 1.25l-.57.44a.84.84 0 0 0-.25.66 5.88 5.88 0 0 0 3.95 3.97z"></path>
		</symbol>
	
</svg>
